<?xml version="1.0" encoding="UTF-8"?>
<svg id="_圖層_2" data-name="圖層 2" xmlns="http://www.w3.org/2000/svg" viewBox="0 0 699.53 435.85">
  <g id="_圖層_4" data-name="圖層 4">
    <g id="_圖層_1_拷貝" data-name="圖層 1 拷貝">
      <path fill="currentColor" d="M674.53,138.08h-116.01c-8.66-21.46-18.45-42.43-31.26-57.8-17.61-21.13-38.83-38.67-63.07-52.14C412.06-.82,351.69-7.7,294.21,8.78c-57.48,16.48-105.04,54.31-133.87,106.46l-.33,.6c-28.97,52.14-35.85,112.51-19.37,169.98,11.11,38.75,31.94,72.98,60.31,100.02H25c-13.81,0-25,11.19-25,25s11.19,25,25,25H471.5c59.33,0,107.59-48.26,107.59-107.59s-48.26-107.59-107.59-107.59h-82c-13.81,0-25,11.19-25,25s11.19,25,25,25h82c31.75,0,57.59,25.83,57.59,57.59s-25.83,57.59-57.59,57.59h-190.32c-2.2-4.02-5.52-7.49-9.83-9.88-40.5-22.39-69.85-59.3-82.64-103.93-12.79-44.62-7.46-91.47,15-131.91l.36-.64c22.39-40.5,59.3-69.85,103.93-82.64,44.62-12.79,91.47-7.47,131.92,15.01,18.83,10.46,35.3,24.07,48.95,40.45,5.41,6.49,10.6,15.91,15.23,25.78h-129.57c-59.33,0-107.59,48.26-107.59,107.59s48.26,107.59,107.59,107.59h82c13.81,0,25-11.19,25-25s-11.19-25-25-25h-82c-31.75,0-57.59-25.83-57.59-57.59s25.83-57.59,57.59-57.59h300.01c13.81,0,25-11.19,25-25s-11.19-25-25-25Z"/>
    </g>
  </g>
</svg>
